<mxfile host="app.diagrams.net" agent="Mozilla/5.0 (Macintosh; Intel Mac OS X 10_15_7) AppleWebKit/605.1.15 (KHTML, like Gecko) Version/18.1.1 Safari/605.1.15" version="24.9.1">
  <diagram name="Page-1" id="-gtCmC0D84pcgKsrt4Lq">
    <mxGraphModel dx="1811" dy="667" grid="1" gridSize="10" guides="1" tooltips="1" connect="1" arrows="1" fold="1" page="1" pageScale="1" pageWidth="827" pageHeight="1169" math="0" shadow="0">
      <root>
        <mxCell id="0" />
        <mxCell id="1" parent="0" />
        <mxCell id="5y_4a6BhtjeirYpUWsiD-3" style="edgeStyle=orthogonalEdgeStyle;rounded=0;orthogonalLoop=1;jettySize=auto;html=1;exitX=1;exitY=0.5;exitDx=0;exitDy=0;" edge="1" parent="1" source="5y_4a6BhtjeirYpUWsiD-1" target="5y_4a6BhtjeirYpUWsiD-2">
          <mxGeometry relative="1" as="geometry" />
        </mxCell>
        <mxCell id="5y_4a6BhtjeirYpUWsiD-1" value="Data" style="shape=parallelogram;perimeter=parallelogramPerimeter;whiteSpace=wrap;html=1;fixedSize=1;" vertex="1" parent="1">
          <mxGeometry x="-130" y="150" width="120" height="60" as="geometry" />
        </mxCell>
        <mxCell id="5y_4a6BhtjeirYpUWsiD-5" style="edgeStyle=orthogonalEdgeStyle;rounded=0;orthogonalLoop=1;jettySize=auto;html=1;exitX=0.5;exitY=1;exitDx=0;exitDy=0;exitPerimeter=0;entryX=0.5;entryY=0;entryDx=0;entryDy=0;" edge="1" parent="1" source="5y_4a6BhtjeirYpUWsiD-2" target="5y_4a6BhtjeirYpUWsiD-4">
          <mxGeometry relative="1" as="geometry" />
        </mxCell>
        <mxCell id="5y_4a6BhtjeirYpUWsiD-2" value="DataBase&lt;div&gt;&lt;br&gt;&lt;/div&gt;" style="shape=cylinder3;whiteSpace=wrap;html=1;boundedLbl=1;backgroundOutline=1;size=15;" vertex="1" parent="1">
          <mxGeometry x="80" y="70" width="60" height="80" as="geometry" />
        </mxCell>
        <mxCell id="5y_4a6BhtjeirYpUWsiD-15" style="edgeStyle=orthogonalEdgeStyle;rounded=0;orthogonalLoop=1;jettySize=auto;html=1;exitX=1;exitY=0.5;exitDx=0;exitDy=0;entryX=0;entryY=0.5;entryDx=0;entryDy=0;" edge="1" parent="1" source="5y_4a6BhtjeirYpUWsiD-4" target="5y_4a6BhtjeirYpUWsiD-13">
          <mxGeometry relative="1" as="geometry" />
        </mxCell>
        <mxCell id="5y_4a6BhtjeirYpUWsiD-4" value="Tools&lt;div&gt;&lt;br&gt;&lt;/div&gt;" style="rounded=0;whiteSpace=wrap;html=1;" vertex="1" parent="1">
          <mxGeometry x="50" y="190" width="120" height="50" as="geometry" />
        </mxCell>
        <mxCell id="5y_4a6BhtjeirYpUWsiD-14" style="edgeStyle=orthogonalEdgeStyle;rounded=0;orthogonalLoop=1;jettySize=auto;html=1;exitX=1;exitY=0.5;exitDx=0;exitDy=0;entryX=0;entryY=0.5;entryDx=0;entryDy=0;" edge="1" parent="1" source="5y_4a6BhtjeirYpUWsiD-6" target="5y_4a6BhtjeirYpUWsiD-9">
          <mxGeometry relative="1" as="geometry" />
        </mxCell>
        <mxCell id="5y_4a6BhtjeirYpUWsiD-6" value="LLM (Grow)" style="whiteSpace=wrap;html=1;aspect=fixed;" vertex="1" parent="1">
          <mxGeometry x="80" y="330" width="80" height="80" as="geometry" />
        </mxCell>
        <mxCell id="5y_4a6BhtjeirYpUWsiD-10" style="edgeStyle=orthogonalEdgeStyle;rounded=0;orthogonalLoop=1;jettySize=auto;html=1;exitX=1;exitY=0.5;exitDx=0;exitDy=0;entryX=0;entryY=0.5;entryDx=0;entryDy=0;" edge="1" parent="1" source="5y_4a6BhtjeirYpUWsiD-7" target="5y_4a6BhtjeirYpUWsiD-4">
          <mxGeometry relative="1" as="geometry" />
        </mxCell>
        <mxCell id="5y_4a6BhtjeirYpUWsiD-7" value="LangChain" style="rounded=0;whiteSpace=wrap;html=1;" vertex="1" parent="1">
          <mxGeometry x="-120" y="360" width="100" height="60" as="geometry" />
        </mxCell>
        <mxCell id="5y_4a6BhtjeirYpUWsiD-34" style="edgeStyle=orthogonalEdgeStyle;rounded=0;orthogonalLoop=1;jettySize=auto;html=1;exitX=0.5;exitY=1;exitDx=0;exitDy=0;entryX=0.5;entryY=0;entryDx=0;entryDy=0;" edge="1" parent="1" source="5y_4a6BhtjeirYpUWsiD-9" target="5y_4a6BhtjeirYpUWsiD-32">
          <mxGeometry relative="1" as="geometry" />
        </mxCell>
        <mxCell id="5y_4a6BhtjeirYpUWsiD-9" value="" style="swimlane;startSize=0;" vertex="1" parent="1">
          <mxGeometry x="270" y="90" width="820" height="280" as="geometry" />
        </mxCell>
        <mxCell id="5y_4a6BhtjeirYpUWsiD-13" value="" style="rounded=1;whiteSpace=wrap;html=1;" vertex="1" parent="5y_4a6BhtjeirYpUWsiD-9">
          <mxGeometry x="25" y="20" width="735" height="210" as="geometry" />
        </mxCell>
        <mxCell id="5y_4a6BhtjeirYpUWsiD-18" value="SQL Agents" style="rounded=1;whiteSpace=wrap;html=1;" vertex="1" parent="5y_4a6BhtjeirYpUWsiD-9">
          <mxGeometry x="40" y="70" width="120" height="60" as="geometry" />
        </mxCell>
        <mxCell id="5y_4a6BhtjeirYpUWsiD-17" value="Data Analyst" style="rounded=1;whiteSpace=wrap;html=1;" vertex="1" parent="5y_4a6BhtjeirYpUWsiD-9">
          <mxGeometry x="140" y="150" width="120" height="60" as="geometry" />
        </mxCell>
        <mxCell id="5y_4a6BhtjeirYpUWsiD-21" value="Feature Engineer" style="rounded=1;whiteSpace=wrap;html=1;" vertex="1" parent="5y_4a6BhtjeirYpUWsiD-9">
          <mxGeometry x="332.5" y="150" width="120" height="60" as="geometry" />
        </mxCell>
        <mxCell id="5y_4a6BhtjeirYpUWsiD-20" value="Evaluation" style="rounded=1;whiteSpace=wrap;html=1;" vertex="1" parent="5y_4a6BhtjeirYpUWsiD-9">
          <mxGeometry x="520" y="150" width="120" height="60" as="geometry" />
        </mxCell>
        <mxCell id="5y_4a6BhtjeirYpUWsiD-19" value="Report Writer" style="rounded=1;whiteSpace=wrap;html=1;" vertex="1" parent="5y_4a6BhtjeirYpUWsiD-9">
          <mxGeometry x="620" y="70" width="120" height="60" as="geometry" />
        </mxCell>
        <mxCell id="5y_4a6BhtjeirYpUWsiD-24" value="Data Visualisation" style="rounded=1;whiteSpace=wrap;html=1;" vertex="1" parent="5y_4a6BhtjeirYpUWsiD-9">
          <mxGeometry x="230" y="70" width="120" height="60" as="geometry" />
        </mxCell>
        <mxCell id="5y_4a6BhtjeirYpUWsiD-25" value="Agents" style="text;html=1;align=center;verticalAlign=middle;whiteSpace=wrap;rounded=0;" vertex="1" parent="5y_4a6BhtjeirYpUWsiD-9">
          <mxGeometry x="40" y="30" width="60" height="30" as="geometry" />
        </mxCell>
        <mxCell id="5y_4a6BhtjeirYpUWsiD-26" value="Model Developer" style="rounded=1;whiteSpace=wrap;html=1;" vertex="1" parent="5y_4a6BhtjeirYpUWsiD-9">
          <mxGeometry x="440" y="70" width="120" height="60" as="geometry" />
        </mxCell>
        <mxCell id="5y_4a6BhtjeirYpUWsiD-29" style="edgeStyle=orthogonalEdgeStyle;rounded=0;orthogonalLoop=1;jettySize=auto;html=1;exitX=0.5;exitY=1;exitDx=0;exitDy=0;" edge="1" parent="1" source="5y_4a6BhtjeirYpUWsiD-9" target="5y_4a6BhtjeirYpUWsiD-9">
          <mxGeometry relative="1" as="geometry" />
        </mxCell>
        <mxCell id="5y_4a6BhtjeirYpUWsiD-31" value="User Query" style="rounded=0;whiteSpace=wrap;html=1;" vertex="1" parent="1">
          <mxGeometry x="354" y="410" width="120" height="60" as="geometry" />
        </mxCell>
        <mxCell id="5y_4a6BhtjeirYpUWsiD-32" value="Response" style="rounded=0;whiteSpace=wrap;html=1;" vertex="1" parent="1">
          <mxGeometry x="620" y="410" width="120" height="60" as="geometry" />
        </mxCell>
        <mxCell id="5y_4a6BhtjeirYpUWsiD-33" style="edgeStyle=orthogonalEdgeStyle;rounded=0;orthogonalLoop=1;jettySize=auto;html=1;exitX=0.5;exitY=0;exitDx=0;exitDy=0;entryX=0.185;entryY=1.007;entryDx=0;entryDy=0;entryPerimeter=0;" edge="1" parent="1" source="5y_4a6BhtjeirYpUWsiD-31" target="5y_4a6BhtjeirYpUWsiD-9">
          <mxGeometry relative="1" as="geometry" />
        </mxCell>
      </root>
    </mxGraphModel>
  </diagram>
</mxfile>
